<?xml version="1.0" standalone="no"?>
<!DOCTYPE svg PUBLIC "-//W3C//DTD SVG 20010904//EN"
 "http://www.w3.org/TR/2001/REC-SVG-20010904/DTD/svg10.dtd">
<svg version="1.0" xmlns="http://www.w3.org/2000/svg"
 width="2732.000000pt" height="2732.000000pt" viewBox="0 0 2732.000000 2732.000000"
 preserveAspectRatio="xMidYMid meet">
<metadata>
Created by potrace 1.11, written by Peter Selinger 2001-2013
</metadata>
<g transform="translate(0.000000,2732.000000) scale(0.100000,-0.100000)"
fill="#000000" stroke="none">
<path d="M16510 21199 c-41 -4 -100 -13 -130 -20 -30 -7 -75 -11 -99 -10 -76
3 -369 -101 -453 -160 -15 -11 -38 -20 -50 -21 -30 0 -164 -67 -191 -94 -12
-12 -26 -20 -33 -17 -28 10 -167 -81 -305 -202 -101 -89 -231 -232 -301 -331
-93 -133 -114 -184 -73 -184 8 0 15 -1 15 -3 0 -2 -20 -39 -45 -83 -25 -43
-45 -83 -45 -89 0 -6 -6 -17 -12 -23 -7 -7 -13 -16 -13 -20 -1 -4 -13 -34 -29
-66 -15 -33 -33 -80 -39 -106 -7 -25 -15 -47 -20 -48 -18 -4 -117 -73 -117
-82 0 -5 -6 -7 -13 -4 -7 2 -30 -2 -50 -11 -20 -8 -40 -16 -44 -16 -5 -1 -18
-5 -31 -10 -13 -5 -26 -9 -30 -9 -12 0 -167 -75 -180 -87 -8 -7 -17 -11 -22
-8 -5 3 -10 1 -12 -4 -1 -5 -38 -25 -81 -46 -52 -24 -82 -45 -89 -61 -6 -13
-15 -24 -20 -24 -4 0 -43 -17 -86 -37 -42 -21 -80 -37 -84 -35 -5 1 -8 -3 -8
-9 0 -5 -4 -8 -9 -5 -5 4 -11 3 -13 -1 -4 -9 -79 -49 -87 -47 -3 1 -18 -7 -33
-17 -14 -10 -29 -19 -32 -19 -6 0 -211 -95 -251 -117 -16 -9 -49 -29 -73 -45
-24 -15 -47 -28 -51 -28 -5 0 -14 -7 -21 -15 -7 -8 -16 -12 -21 -9 -5 3 -9 1
-9 -3 0 -11 -92 -78 -103 -75 -4 1 -35 -11 -70 -26 -42 -20 -80 -48 -117 -88
-65 -69 -126 -117 -155 -121 -11 -2 -31 -12 -45 -22 -14 -10 -43 -28 -65 -39
-41 -21 -137 -89 -216 -154 -26 -21 -51 -38 -57 -38 -6 0 -12 -4 -14 -9 -3 -9
-126 -96 -210 -148 l-52 -32 -31 48 c-17 26 -40 56 -49 67 -26 28 -92 131
-212 331 -128 214 -200 318 -268 389 -72 74 -99 106 -132 153 -40 56 -58 60
-96 19 -18 -18 -31 -36 -30 -40 1 -5 -13 -8 -32 -8 -37 0 -53 -21 -40 -53 3
-9 -1 -25 -9 -37 -15 -21 -14 -26 24 -159 5 -16 -6 -18 -123 -26 -123 -9 -143
-12 -175 -28 -15 -8 -33 -13 -38 -11 -6 2 -35 -20 -65 -49 -61 -57 -128 -95
-225 -124 -35 -11 -151 -31 -156 -27 -13 7 -66 -54 -64 -73 0 -11 20 -50 43
-86 23 -37 60 -102 82 -144 22 -43 67 -118 100 -168 33 -49 63 -97 67 -105 4
-8 9 -17 13 -20 23 -18 134 -218 224 -400 58 -118 117 -227 131 -242 29 -31
31 -38 11 -38 -8 0 -16 -4 -18 -9 -1 -5 -39 -36 -83 -69 -108 -81 -405 -377
-458 -457 -15 -22 -27 -36 -27 -32 0 10 -42 -12 -108 -57 -29 -19 -121 -69
-205 -111 -84 -41 -166 -83 -182 -93 -32 -18 -293 -191 -310 -205 -26 -21
-275 -197 -280 -197 -3 0 -13 -8 -23 -17 -24 -23 -42 -37 -126 -98 -37 -27
-107 -89 -155 -137 -48 -49 -90 -88 -93 -88 -12 0 -181 -164 -225 -217 -20
-24 -41 -43 -48 -43 -7 0 -24 -11 -39 -25 -15 -14 -32 -25 -38 -25 -10 0 -138
-87 -148 -101 -3 -3 -39 -27 -80 -52 -65 -39 -81 -44 -117 -40 -33 3 -64 -5
-141 -36 -54 -21 -116 -48 -137 -59 -89 -45 -153 -72 -171 -72 -10 0 -45 -16
-77 -35 -32 -19 -66 -35 -76 -35 -9 0 -21 -4 -27 -8 -5 -5 -25 -15 -44 -22
-19 -7 -42 -19 -50 -25 -8 -7 -64 -33 -125 -60 -60 -26 -132 -59 -159 -72 -29
-15 -54 -22 -65 -17 -9 4 -20 8 -26 9 -15 2 -82 -33 -146 -76 -30 -20 -91 -54
-134 -76 -48 -23 -84 -48 -94 -64 -8 -14 -27 -31 -43 -38 -32 -14 -105 -83
-158 -150 -19 -24 -50 -60 -68 -80 -44 -49 -93 -150 -99 -204 -6 -51 12 -72
54 -64 15 3 49 -3 77 -14 50 -20 144 -27 221 -16 22 4 60 9 85 12 25 4 65 11
90 16 25 6 65 12 89 15 24 2 46 6 50 8 4 3 27 7 51 11 25 3 77 15 116 25 74
20 80 21 214 45 132 23 134 24 201 44 35 10 111 31 169 46 58 15 119 33 135
39 17 7 75 25 130 41 55 15 121 33 148 41 26 7 49 13 52 13 3 0 15 3 28 6 61
14 88 17 155 21 40 2 77 6 82 9 5 3 21 -6 36 -20 26 -24 47 -30 88 -26 11 1
29 -7 40 -18 12 -11 40 -24 64 -30 23 -7 42 -13 42 -15 0 -2 -6 -19 -13 -37
-15 -38 -14 -91 2 -142 29 -88 193 -174 261 -137 21 11 22 10 17 -6 -4 -11
-26 -77 -51 -149 -24 -71 -47 -143 -49 -160 -8 -43 -34 -175 -57 -285 -33
-153 -33 -177 -4 -206 13 -14 22 -29 19 -33 -2 -5 -7 -26 -11 -47 -3 -22 -9
-55 -14 -74 -21 -81 -28 -213 -16 -283 7 -36 5 -41 -31 -73 -21 -19 -41 -34
-46 -34 -6 0 -93 -58 -122 -82 -5 -4 -41 -24 -80 -44 -147 -75 -193 -100 -287
-156 -54 -32 -100 -58 -104 -58 -8 0 -115 -77 -163 -117 -111 -92 -147 -139
-175 -226 l-15 -47 37 -24 c20 -12 55 -28 77 -35 22 -7 46 -15 54 -17 11 -3 8
-9 -10 -21 -13 -10 -42 -34 -64 -55 -22 -21 -43 -38 -47 -38 -5 0 -8 -4 -8 -8
0 -5 -25 -35 -55 -68 -31 -32 -58 -70 -61 -84 -3 -14 -9 -34 -12 -45 -3 -11
-5 -24 -4 -28 1 -4 -2 -16 -8 -26 -14 -27 21 -68 68 -81 46 -12 148 -13 227 0
33 5 88 12 122 15 34 3 72 8 84 10 73 14 116 18 226 20 l123 2 -6 -26 c-3 -14
-8 -35 -11 -46 -8 -30 -95 -239 -103 -245 -12 -10 -32 -69 -26 -78 3 -5 -2
-20 -12 -33 -9 -14 -22 -33 -29 -44 -7 -11 -38 -63 -69 -115 -32 -52 -62 -98
-67 -101 -5 -3 -9 -10 -9 -15 1 -8 -68 -122 -145 -241 -18 -28 -33 -56 -33
-62 0 -6 -4 -11 -9 -11 -5 0 -16 -24 -26 -52 -9 -29 -39 -83 -66 -120 -27 -37
-49 -70 -49 -72 0 -3 -13 -25 -30 -49 -16 -24 -34 -55 -40 -68 -19 -44 -72
-134 -84 -141 -6 -4 -7 -8 -3 -8 5 0 0 -15 -11 -32 -99 -169 -136 -228 -143
-228 -5 0 -8 -3 -7 -7 4 -13 -53 -103 -65 -103 -6 0 -8 -3 -4 -6 6 -6 -188
-302 -206 -315 -5 -3 -8 -9 -7 -13 2 -9 -72 -130 -82 -134 -4 -2 -8 -7 -8 -11
0 -4 -32 -61 -72 -127 -39 -65 -88 -150 -108 -189 -20 -38 -50 -92 -65 -120
-87 -156 -120 -245 -124 -330 -2 -45 -8 -66 -26 -87 -23 -28 -85 -149 -85
-168 0 -6 -5 -10 -12 -10 -6 0 -8 -3 -5 -7 4 -3 3 -11 -2 -17 -10 -12 -58
-161 -65 -202 -3 -15 -8 -48 -12 -73 -4 -25 -8 -55 -11 -66 -9 -47 -2 -150 14
-202 29 -91 122 -163 213 -163 27 0 70 32 70 53 0 7 16 -17 36 -53 45 -81 62
-100 89 -100 29 0 45 19 45 54 0 58 11 17 15 -56 7 -122 32 -194 72 -204 50
-13 63 25 48 136 -3 25 -7 86 -9 137 l-4 91 30 -34 c34 -39 85 -64 129 -64 16
0 29 -4 29 -9 0 -14 75 -29 94 -19 9 5 20 7 24 4 10 -6 120 27 161 49 17 8 35
15 41 15 11 0 -29 -82 -42 -88 -5 -2 -8 -9 -8 -15 0 -29 -117 -176 -227 -285
-79 -77 -89 -97 -67 -126 19 -27 55 -23 126 14 51 26 77 33 137 36 40 2 79 9
87 15 25 20 29 0 6 -31 -12 -16 -22 -34 -22 -39 0 -6 -6 -14 -13 -18 -24 -15
-35 -56 -24 -88 12 -36 8 -31 33 -39 16 -5 41 8 98 48 42 30 76 51 76 45 0 -5
-7 -12 -15 -15 -8 -4 -15 -10 -15 -15 0 -13 -35 -54 -117 -136 -61 -62 -76
-73 -105 -73 -42 0 -71 -20 -66 -46 3 -14 -8 -25 -42 -44 -50 -28 -60 -52 -35
-80 22 -24 56 -20 182 21 51 16 98 29 105 28 31 -4 47 2 53 20 3 11 32 34 63
52 93 52 200 143 235 198 12 20 41 60 65 90 47 57 98 155 138 261 14 36 33 83
43 105 10 22 40 92 66 155 25 63 60 143 76 178 16 35 29 65 29 67 0 4 23 54
139 298 28 60 51 110 51 112 0 1 25 55 55 119 30 64 55 118 55 121 0 3 15 38
33 77 39 84 97 219 157 363 23 55 57 136 76 181 19 45 34 90 34 101 0 24 35
87 113 208 32 50 126 209 209 355 83 146 166 288 186 315 53 74 134 234 128
251 -6 16 23 84 36 84 4 0 8 5 8 11 0 18 129 217 181 279 40 48 197 208 274
279 37 34 59 79 46 95 -7 9 17 40 89 116 55 58 103 116 107 130 3 14 14 31 24
38 18 13 139 177 139 188 0 4 15 27 34 53 18 25 62 89 96 141 35 52 68 98 73
102 6 3 11 23 11 44 1 31 8 45 44 77 23 22 42 45 42 51 0 6 19 24 43 41 130
90 245 202 323 311 16 22 35 39 42 36 7 -2 22 4 32 13 20 18 40 13 40 -9 0 -8
7 -19 15 -26 24 -20 84 13 152 81 56 57 60 59 92 49 35 -10 71 1 71 22 0 6 9
3 20 -7 12 -11 29 -20 38 -22 33 -5 182 40 347 104 50 19 95 36 100 38 11 2
27 8 110 40 33 13 94 36 135 51 73 26 232 90 297 120 17 8 38 14 46 14 9 0 18
4 21 9 3 5 17 12 32 15 26 7 213 88 248 107 17 10 17 8 -3 -28 -11 -21 -25
-49 -31 -63 -6 -14 -16 -34 -23 -45 -60 -98 -68 -116 -62 -135 3 -11 9 -20 13
-21 4 0 15 -2 24 -4 10 -2 20 1 24 6 12 19 24 8 14 -12 -7 -11 -9 -32 -6 -45
8 -31 52 -33 90 -3 l26 21 -11 -26 c-18 -39 2 -76 40 -76 25 0 101 43 156 88
30 24 38 23 65 -7 16 -17 34 -31 39 -31 15 0 14 -4 -9 -85 -26 -90 -26 -121 0
-135 16 -9 27 -6 54 15 l33 25 -18 -67 c-11 -37 -19 -82 -19 -99 0 -51 52 -83
80 -49 7 8 18 15 25 15 8 0 16 6 19 13 6 11 2 -30 -10 -116 -14 -93 67 -80
186 30 44 41 51 41 39 1 -31 -108 25 -162 99 -95 34 31 157 196 189 253 15 28
47 82 70 120 52 87 160 330 174 392 6 26 18 61 26 77 9 17 29 57 47 90 92 177
170 405 146 429 -11 11 3 39 37 75 13 14 26 35 29 47 4 15 28 28 103 52 53 18
123 48 155 67 32 19 64 35 71 35 8 0 26 6 42 14 34 17 233 54 323 59 78 6 184
42 385 132 239 107 257 115 315 143 98 46 318 181 342 210 13 16 61 49 108 75
47 25 94 54 105 64 36 33 177 137 226 168 68 42 105 75 232 201 182 181 257
273 355 436 98 162 215 450 247 608 10 47 21 88 26 91 6 3 11 21 13 40 2 19
11 61 19 94 15 57 20 98 33 230 3 33 7 182 8 330 2 217 0 272 -11 280 -13 10
-9 34 15 95 3 8 7 22 8 30 7 37 15 76 20 90 7 19 6 187 -1 224 -3 15 -2 33 3
40 5 6 12 27 15 46 3 19 9 46 12 60 3 14 8 39 11 55 2 17 9 46 14 65 5 19 11
55 14 80 6 47 12 81 22 128 9 47 10 67 3 77 -4 6 -9 31 -12 56 -7 62 -49 184
-92 270 -30 58 -33 70 -20 75 8 4 15 15 15 25 0 28 -60 141 -126 239 -31 47
-57 93 -56 104 1 26 -74 173 -115 223 -19 24 -33 48 -31 55 2 14 -14 48 -37
76 -7 9 -36 48 -64 85 l-51 69 21 17 c32 25 20 57 -54 145 -84 101 -107 130
-107 137 0 13 57 1 92 -20 21 -13 49 -21 65 -19 25 3 28 7 27 35 -2 25 -14 45
-50 81 -53 52 -85 89 -69 80 17 -10 55 11 55 30 0 10 -9 28 -20 40 -17 18 -18
22 -5 22 9 0 18 7 21 15 4 8 17 15 30 15 13 0 29 8 35 18 8 13 21 16 49 14 29
-3 43 1 60 18 16 16 29 20 47 15 34 -8 73 18 66 45 -5 19 5 25 31 21 19 -4 45
11 51 29 7 23 27 22 37 -2 11 -26 162 -88 217 -88 20 0 37 -15 74 -65 50 -67
60 -73 90 -51 27 21 25 180 -4 271 -27 87 -51 134 -78 159 -11 10 -19 22 -16
25 6 11 -6 23 -70 71 -33 25 -65 50 -72 55 -7 6 -44 32 -82 60 -65 46 -69 51
-57 70 12 18 9 29 -23 95 -72 146 -124 224 -205 305 -45 44 -106 109 -136 145
-91 108 -291 303 -350 341 -160 105 -322 161 -504 175 -39 3 -75 6 -81 8 -5 1
-44 -1 -85 -5z m90 -579 c0 -5 -2 -10 -4 -10 -3 0 -8 5 -11 10 -3 6 -1 10 4
10 6 0 11 -4 11 -10z m40 -265 c0 -9 -64 -45 -80 -45 -8 0 6 11 30 24 25 13
46 24 48 25 1 0 2 -1 2 -4z m-700 -123 c0 -5 -7 -9 -15 -9 -8 0 -12 4 -9 9 3
4 9 8 15 8 5 0 9 -4 9 -8z m-8451 -11657 c-12 -19 -23 -35 -25 -35 -6 0 14 40
29 58 18 23 16 12 -4 -23z m-438 -662 c-12 -20 -14 -14 -5 12 4 9 9 14 11 11
3 -2 0 -13 -6 -23z"/>
</g>
</svg>
